<?xml version="1.0" encoding="UTF-8" standalone="no"?>
<svg
   height="24"
   viewBox="0 -960 960 960"
   width="24"
   version="1.1"
   id="svg345"
   sodipodi:docname="edit_FILL0_wght400_GRAD0_opsz24.svg"
   inkscape:version="1.2.2 (732a01da63, 2022-12-09)"
   xmlns:inkscape="http://www.inkscape.org/namespaces/inkscape"
   xmlns:sodipodi="http://sodipodi.sourceforge.net/DTD/sodipodi-0.dtd"
   xmlns="http://www.w3.org/2000/svg"
   xmlns:svg="http://www.w3.org/2000/svg">
  <defs
     id="defs349" />
  <sodipodi:namedview
     id="namedview347"
     pagecolor="#ffffff"
     bordercolor="#000000"
     borderopacity="0.25"
     inkscape:showpageshadow="2"
     inkscape:pageopacity="0.0"
     inkscape:pagecheckerboard="0"
     inkscape:deskcolor="#d1d1d1"
     showgrid="false"
     inkscape:zoom="36.541667"
     inkscape:cx="53.651083"
     inkscape:cy="12.013683"
     inkscape:window-width="1920"
     inkscape:window-height="1057"
     inkscape:window-x="-8"
     inkscape:window-y="-8"
     inkscape:window-maximized="1"
     inkscape:current-layer="svg345" />
  <path
     d="m 106.6666,-106.66667 h 76 L 704,-628 628,-704 106.6666,-182.66667 Z M 53.3333,-2.9999999e-6 q -22.6667,0 -38,-15.3333300000001 Q 0,-30.66667 0,-53.333336 V -182.66667 Q 0,-204 8,-223.33333 q 8,-19.33334 22.6666,-34 l 673.3334,-672 Q 720,-944 739.3333,-952 q 19.3333,-8 40.6667,-8 21.3333,0 41.3333,8 20,8 34.6667,24 l 73.3333,74.66667 q 16,14.66666 23.3334,34.66666 7.3333,20 7.3333,40 0,21.33334 -7.3333,40.66667 -7.3334,19.33333 -23.3334,35.33333 l -672,672 q -14.6667,14.666667 -34,22.666667 -19.3333,8 -40.6667,8 z m 800,-778.666667 -74.6667,-74.66666 z m -188,113.33334 L 628,-704 l 76,76 z"
     fill="#ffffff"
     id="path343"
     style="stroke-width:1.33333" />
</svg>
