<?xml version="1.0" encoding="UTF-8" standalone="no"?>
<svg
   height="24"
   viewBox="0 -960 960 960"
   width="24"
   version="1.1"
   id="svg365"
   sodipodi:docname="edit_FILL1_wght400_GRAD0_opsz24.svg"
   inkscape:version="1.2.2 (732a01da63, 2022-12-09)"
   xmlns:inkscape="http://www.inkscape.org/namespaces/inkscape"
   xmlns:sodipodi="http://sodipodi.sourceforge.net/DTD/sodipodi-0.dtd"
   xmlns="http://www.w3.org/2000/svg"
   xmlns:svg="http://www.w3.org/2000/svg">
  <defs
     id="defs369" />
  <sodipodi:namedview
     id="namedview367"
     pagecolor="#ffffff"
     bordercolor="#000000"
     borderopacity="0.25"
     inkscape:showpageshadow="2"
     inkscape:pageopacity="0.0"
     inkscape:pagecheckerboard="0"
     inkscape:deskcolor="#d1d1d1"
     showgrid="false"
     inkscape:zoom="36.541667"
     inkscape:cx="12.054732"
     inkscape:cy="12.013683"
     inkscape:window-width="1920"
     inkscape:window-height="1057"
     inkscape:window-x="-8"
     inkscape:window-y="-8"
     inkscape:window-maximized="1"
     inkscape:current-layer="svg365" />
  <path
     d="m 53.333333,0 q -22.666666,0 -38,-15.333333 Q 0,-30.666667 0,-53.333333 V -182.66667 Q 0,-204 8,-223.33333 q 8,-19.33334 22.666667,-34 L 704,-929.33333 Q 720,-944 739.33333,-952 q 19.33334,-8 40.66667,-8 21.33333,0 41.33333,8 20,8 34.66667,24 l 73.33333,74.66667 q 16,14.66666 23.33334,34.66666 7.33333,20 7.33333,40 0,21.33334 -7.33333,40.66667 -7.33334,19.33333 -23.33334,35.33333 l -672,672.000003 Q 242.66667,-16 223.33333,-8 204,0 182.66667,0 Z M 778.66667,-704 853.33333,-778.66667 778.66667,-853.33333 704,-778.66667 Z"
     fill="#ffffff"
     id="path363"
     style="stroke-width:1.33333" />
</svg>
