<?xml version="1.0" encoding="UTF-8" standalone="no"?>
<svg
   height="24"
   viewBox="0 -960 960 960"
   width="24"
   version="1.1"
   id="svg325"
   sodipodi:docname="disabled_by_default_FILL1_wght400_GRAD0_opsz24.svg"
   inkscape:version="1.2.2 (732a01da63, 2022-12-09)"
   xmlns:inkscape="http://www.inkscape.org/namespaces/inkscape"
   xmlns:sodipodi="http://sodipodi.sourceforge.net/DTD/sodipodi-0.dtd"
   xmlns="http://www.w3.org/2000/svg"
   xmlns:svg="http://www.w3.org/2000/svg">
  <defs
     id="defs329" />
  <sodipodi:namedview
     id="namedview327"
     pagecolor="#ffffff"
     bordercolor="#000000"
     borderopacity="0.25"
     inkscape:showpageshadow="2"
     inkscape:pageopacity="0.0"
     inkscape:pagecheckerboard="0"
     inkscape:deskcolor="#d1d1d1"
     showgrid="false"
     inkscape:zoom="36.541667"
     inkscape:cx="12.027366"
     inkscape:cy="12.013683"
     inkscape:window-width="1350"
     inkscape:window-height="1041"
     inkscape:window-x="477"
     inkscape:window-y="100"
     inkscape:window-maximized="0"
     inkscape:current-layer="svg325" />
  <path
     d="m 480,-405.33333 154.66667,154.66666 Q 649.33333,-236 672,-236 q 22.66667,0 37.33333,-14.66667 Q 724,-265.33333 724,-288 q 0,-22.66667 -14.66667,-37.33333 L 554.66667,-480 709.33333,-634.66667 Q 724,-649.33333 724,-672 724,-694.66667 709.33333,-709.33333 694.66667,-724 672,-724 q -22.66667,0 -37.33333,14.66667 L 480,-554.66667 325.33333,-709.33333 Q 310.66667,-724 288,-724 q -22.66667,0 -37.33333,14.66667 Q 236,-694.66667 236,-672 q 0,22.66667 14.66667,37.33333 L 405.33333,-480 250.66667,-325.33333 Q 236,-310.66667 236,-288 q 0,22.66667 14.66667,37.33333 Q 265.33333,-236 288,-236 q 22.66667,0 37.33333,-14.66667 z M 106.66667,0 Q 62.666667,0 31.333333,-31.333333 0,-62.666667 0,-106.66667 v -746.66666 q 0,-44 31.333333,-75.33334 Q 62.666667,-960 106.66667,-960 h 746.66666 q 44,0 75.33334,31.33333 Q 960,-897.33333 960,-853.33333 v 746.66666 q 0,44.000003 -31.33333,75.333337 Q 897.33333,0 853.33333,0 Z"
     fill="#ffffff"
     id="path323"
     style="stroke-width:1.33333" />
</svg>
