<?xml version="1.0" encoding="UTF-8" standalone="no"?>
<svg
   height="24"
   viewBox="0 -960 960 960"
   width="24"
   version="1.1"
   id="svg285"
   sodipodi:docname="dataset_FILL1_wght400_GRAD0_opsz24.svg"
   inkscape:version="1.2.2 (732a01da63, 2022-12-09)"
   xmlns:inkscape="http://www.inkscape.org/namespaces/inkscape"
   xmlns:sodipodi="http://sodipodi.sourceforge.net/DTD/sodipodi-0.dtd"
   xmlns="http://www.w3.org/2000/svg"
   xmlns:svg="http://www.w3.org/2000/svg">
  <defs
     id="defs289" />
  <sodipodi:namedview
     id="namedview287"
     pagecolor="#ffffff"
     bordercolor="#000000"
     borderopacity="0.25"
     inkscape:showpageshadow="2"
     inkscape:pageopacity="0.0"
     inkscape:pagecheckerboard="0"
     inkscape:deskcolor="#d1d1d1"
     showgrid="false"
     inkscape:zoom="36.541667"
     inkscape:cx="12"
     inkscape:cy="12.013683"
     inkscape:window-width="1920"
     inkscape:window-height="1057"
     inkscape:window-x="-8"
     inkscape:window-y="-8"
     inkscape:window-maximized="1"
     inkscape:current-layer="svg285" />
  <path
     d="m 266.66667,-213.33333 h 106.66666 q 22.66667,0 38,-15.33334 15.33334,-15.33333 15.33334,-38 v -106.66666 q 0,-22.66667 -15.33334,-38 -15.33333,-15.33334 -38,-15.33334 H 266.66667 q -22.66667,0 -38,15.33334 -15.33334,15.33333 -15.33334,38 v 106.66666 q 0,22.66667 15.33334,38 15.33333,15.33334 38,15.33334 z m 320,0 h 106.66666 q 22.66667,0 38,-15.33334 15.33334,-15.33333 15.33334,-38 v -106.66666 q 0,-22.66667 -15.33334,-38 -15.33333,-15.33334 -38,-15.33334 H 586.66667 q -22.66667,0 -38,15.33334 -15.33334,15.33333 -15.33334,38 v 106.66666 q 0,22.66667 15.33334,38 15.33333,15.33334 38,15.33334 z m -320,-320 h 106.66666 q 22.66667,0 38,-15.33334 15.33334,-15.33333 15.33334,-38 v -106.66666 q 0,-22.66667 -15.33334,-38 -15.33333,-15.33334 -38,-15.33334 H 266.66667 q -22.66667,0 -38,15.33334 -15.33334,15.33333 -15.33334,38 v 106.66666 q 0,22.66667 15.33334,38 15.33333,15.33334 38,15.33334 z m 320,0 h 106.66666 q 22.66667,0 38,-15.33334 15.33334,-15.33333 15.33334,-38 v -106.66666 q 0,-22.66667 -15.33334,-38 -15.33333,-15.33334 -38,-15.33334 H 586.66667 q -22.66667,0 -38,15.33334 -15.33334,15.33333 -15.33334,38 v 106.66666 q 0,22.66667 15.33334,38 15.33333,15.33334 38,15.33334 z M 106.66667,0 q -44,0 -75.33334,-31.333333 Q 0,-62.666667 0,-106.66667 v -746.66666 q 0,-44 31.33333,-75.33334 Q 62.66667,-960 106.66667,-960 h 746.66666 q 43.99997,0 75.33337,31.33333 Q 960,-897.33333 960,-853.33333 v 746.66666 q 0,44.000003 -31.3333,75.333337 Q 897.3333,0 853.33333,0 Z"
     fill="#ffffff"
     id="path283"
     style="stroke-width:1.33333" />
</svg>
