<?xml version="1.0" encoding="UTF-8" standalone="no"?>
<svg
   height="24"
   viewBox="0 -960 960 960"
   width="24"
   version="1.1"
   id="svg428"
   sodipodi:docname="settings_applications_FILL0_wght400_GRAD0_opsz24.svg"
   inkscape:version="1.2.2 (732a01da63, 2022-12-09)"
   xmlns:inkscape="http://www.inkscape.org/namespaces/inkscape"
   xmlns:sodipodi="http://sodipodi.sourceforge.net/DTD/sodipodi-0.dtd"
   xmlns="http://www.w3.org/2000/svg"
   xmlns:svg="http://www.w3.org/2000/svg">
  <defs
     id="defs432" />
  <sodipodi:namedview
     id="namedview430"
     pagecolor="#ffffff"
     bordercolor="#000000"
     borderopacity="0.25"
     inkscape:showpageshadow="2"
     inkscape:pageopacity="0.0"
     inkscape:pagecheckerboard="0"
     inkscape:deskcolor="#d1d1d1"
     showgrid="false"
     inkscape:zoom="36.541667"
     inkscape:cx="12.054732"
     inkscape:cy="12.013683"
     inkscape:window-width="1920"
     inkscape:window-height="1057"
     inkscape:window-x="-8"
     inkscape:window-y="-8"
     inkscape:window-maximized="1"
     inkscape:current-layer="svg428" />
  <path
     d="m 410.66667,-293.33333 8,38.66666 q 4,18.66667 18,30 14,11.33334 32.66666,11.33334 h 21.33334 q 18.66666,0 32.66666,-12 14,-12 18,-30.66667 l 8,-37.33333 q 16,-6.66667 30,-14 14,-7.33334 28.66667,-18 l 38.66667,12 q 17.33333,5.33333 34,-1.33334 16.66666,-6.66666 26,-21.33333 l 10.66666,-18.66667 q 9.33334,-16 6.66667,-34.66666 Q 721.33333,-408 706.66667,-420 l -29.33334,-25.33333 Q 680,-464 680,-480 q 0,-16 -2.66667,-34.66667 L 706.66667,-540 q 14.66666,-12 17.33333,-30 2.66667,-18 -6.66667,-34 l -12,-20 Q 696,-638.66667 680,-645.33333 664,-652 646.66667,-646.66667 l -38.66667,12 q -14.66667,-10.66666 -28.66667,-18 -14,-7.33333 -30,-14 l -8,-38.66666 q -4,-18.66667 -18,-30 -14,-11.33334 -32.66666,-11.33334 h -21.33334 q -18.66666,0 -32.66666,12 -14,12 -18,30.66667 l -8,37.33333 q -16,6.66667 -30,14 -14,7.33334 -28.66667,18 l -38.66667,-12 q -17.33333,-5.33333 -34,1.33334 -16.66666,6.66666 -26,21.33333 l -10.66666,18.66667 q -9.33334,16 -6.66667,34.66666 Q 238.66667,-552 253.33333,-540 l 29.33334,25.33333 Q 280,-496 280,-480 q 0,16 2.66667,34.66667 L 253.33333,-420 q -14.66666,12 -17.33333,30 -2.66667,18 6.66667,34 l 12,20 Q 264,-321.33333 280,-314.66667 q 16,6.66667 33.33333,1.33334 l 38.66667,-12 q 14.66667,10.66666 28.66667,18 14,7.33333 30,14 z m 69.33333,-80 q -44,0 -75.33333,-31.33334 Q 373.33333,-436 373.33333,-480 q 0,-44 31.33334,-75.33333 Q 436,-586.66667 480,-586.66667 q 44,0 75.33333,31.33334 Q 586.66667,-524 586.66667,-480 q 0,44 -31.33334,75.33333 Q 524,-373.33333 480,-373.33333 Z M 106.66667,0 q -44,0 -75.33334,-31.333333 Q 0,-62.666667 0,-106.66667 v -746.66666 q 0,-44 31.33333,-75.33334 Q 62.66667,-960 106.66667,-960 h 746.66666 q 43.99997,0 75.33337,31.33333 Q 960,-897.33333 960,-853.33333 v 746.66666 q 0,44.000003 -31.3333,75.333337 Q 897.3333,0 853.33333,0 Z m 0,-106.66667 H 853.33333 V -853.33333 H 106.66667 Z m 0,-746.66666 v 746.66666 z"
     fill="#ffffff"
     id="path426"
     style="stroke-width:1.33333" />
</svg>
